<svg width="32" height="32" viewBox="0 0 512 512" fill="none" xmlns="http://www.w3.org/2000/svg">
  <rect width="512" height="512" rx="64" fill="#FDF2EA"/>
  <path d="M256 430C256 430 72 300 72 190C72 126 122 76 186 76C224 76 252 100 256 120C260 100 288 76 326 76C390 76 440 126 440 190C440 300 256 430 256 430Z" fill="#F0A882"/>
  <circle cx="205" cy="215" r="55" stroke="#2DBDBA" stroke-width="18" fill="none"/>
  <circle cx="307" cy="215" r="55" stroke="#2DBDBA" stroke-width="18" fill="none"/>
  <line x1="260" y1="215" x2="252" y2="215" stroke="#2DBDBA" stroke-width="18" stroke-linecap="round"/>
  <line x1="150" y1="215" x2="108" y2="215" stroke="#2DBDBA" stroke-width="18" stroke-linecap="round"/>
  <line x1="362" y1="215" x2="404" y2="215" stroke="#2DBDBA" stroke-width="18" stroke-linecap="round"/>
  <path d="M186 195C186 195 196 182 212 188" stroke="#2DBDBA" stroke-width="12" fill="none" stroke-linecap="round"/>
  <path d="M326 195C326 195 316 182 300 188" stroke="#2DBDBA" stroke-width="12" fill="none" stroke-linecap="round"/>
  <path d="M222 320Q256 355 290 320" stroke="#2DBDBA" stroke-width="16" fill="none" stroke-linecap="round"/>
</svg>
