<svg width="32" height="32" viewBox="0 0 512 512" fill="none" xmlns="http://www.w3.org/2000/svg">
  <rect width="512" height="512" rx="80" fill="#FDF0E8"/>
  <path d="M256 440C256 440 64 298 64 182C64 114 116 62 184 62C222 62 248 84 256 108C264 84 290 62 328 62C396 62 448 114 448 182C448 298 256 440 256 440Z" fill="#F4A882"/>
  <circle cx="200" cy="210" r="58" stroke="#2DBDBA" stroke-width="20" fill="none"/>
  <circle cx="312" cy="210" r="58" stroke="#2DBDBA" stroke-width="20" fill="none"/>
  <path d="M258 210 L242 210" stroke="#2DBDBA" stroke-width="20" stroke-linecap="round"/>
  <path d="M142 210 L98 210" stroke="#2DBDBA" stroke-width="20" stroke-linecap="round"/>
  <path d="M370 210 L414 210" stroke="#2DBDBA" stroke-width="20" stroke-linecap="round"/>
  <path d="M178 188 C182 176 198 180 210 186" stroke="#2DBDBA" stroke-width="14" fill="none" stroke-linecap="round"/>
  <path d="M334 188 C330 176 314 180 302 186" stroke="#2DBDBA" stroke-width="14" fill="none" stroke-linecap="round"/>
  <path d="M218 322 Q256 358 294 322" stroke="#2DBDBA" stroke-width="18" fill="none" stroke-linecap="round"/>
</svg>
