<svg xmlns="http://www.w3.org/2000/svg" viewBox="0 0 512 512">
  <!-- Teal heart (V2 brand colour) -->
  <path fill="#87C5BC" d="M256 460 C256 460 56 310 56 178 C56 100 112 44 184 44 C222 44 252 66 256 90 C260 66 290 44 328 44 C400 44 456 100 456 178 C456 310 256 460 256 460Z"/>

  <!-- Left lens (filled ring — thick charcoal frame) -->
  <circle cx="186" cy="210" r="72" fill="#374151"/>
  <circle cx="186" cy="210" r="50" fill="#87C5BC"/>

  <!-- Right lens -->
  <circle cx="326" cy="210" r="72" fill="#374151"/>
  <circle cx="326" cy="210" r="50" fill="#87C5BC"/>

  <!-- Bridge -->
  <rect x="258" y="196" width="44" height="28" rx="8" fill="#374151"/>

  <!-- Left temple arm -->
  <rect x="94" y="196" width="42" height="28" rx="8" fill="#374151"/>

  <!-- Right temple arm -->
  <rect x="370" y="196" width="42" height="28" rx="8" fill="#374151"/>

  <!-- Smile -->
  <path d="M210 320 Q256 366 302 320 L296 340 Q256 388 216 340 Z" fill="#374151"/>
</svg>
