<svg viewBox="0 0 256 256" xmlns="http://www.w3.org/2000/svg">
  <!-- Heart -->
  <path fill="#6F7B83" d="M128 216c-72-50-96-94-96-131 0-27 18-47 40-47 15 0 30 10 56 34 26-24 41-34 56-34 22 0 40 20 40 47 0 37-24 81-96 131z"/>
  
  <!-- Left eye outer ring (filled) -->
  <circle cx="90" cy="88" r="24" fill="#6F7B83"/>
  <!-- Left eye inner (white) to create ring effect -->
  <circle cx="90" cy="88" r="14" fill="white"/>
  
  <!-- Right eye outer ring (filled) -->
  <circle cx="166" cy="88" r="24" fill="#6F7B83"/>
  <!-- Right eye inner (white) to create ring effect -->
  <circle cx="166" cy="88" r="14" fill="white"/>
  
  <!-- Left pupil -->
  <circle cx="90" cy="100" r="7" fill="#6F7B83"/>
  
  <!-- Right pupil -->
  <circle cx="166" cy="100" r="7" fill="#6F7B83"/>
  
  <!-- Bridge -->
  <path fill="#6F7B83" d="M 106 84 L 150 84 Q 152 84 152 86 L 152 90 Q 152 92 150 92 L 106 92 Q 104 92 104 90 L 104 86 Q 104 84 106 84 Z"/>
  
  <!-- Smile - draw as filled path arc -->
  <path fill="#6F7B83" d="M 82 130 Q 128 155 174 130 L 172 142 Q 128 168 84 142 Z"/>
</svg>
